<svg xmlns="http://www.w3.org/2000/svg" xmlns:xlink="http://www.w3.org/1999/xlink" width="37" height="25" viewBox="0 0 37 25"><defs><path id="vz9ha" d="M1522.87 864.32l-15.53 23.15a.55.55 0 0 1-.48.25.57.57 0 0 1-.37-.14l-10.68-9.67-2.68 7.12 5.01-2.98c.26-.16.6-.08.77.18.16.26.08.6-.19.76l-6.37 3.8a.5.5 0 0 1-.12.05.56.56 0 0 1-.68-.3l-.01-.02a.54.54 0 0 1-.04-.24l.42-11.95-5.89-5.45a.55.55 0 0 1 .31-.95l36-4.46c.2-.03.42.07.54.26.11.18.11.41 0 .59zm-30.25 9.15l24.46-8.24-29.42 3.65zm21.53-6.1l-21.11 7.13-.3 8.41 2.3-6.14a.54.54 0 0 1 .3-.32zm6.65-1.97l-24.25 11.7 10.2 9.23z"/></defs><g><g transform="translate(-1486 -863)"><use fill="#575757" xlink:href="#vz9ha"/></g></g></svg>