<svg xmlns="http://www.w3.org/2000/svg" xmlns:xlink="http://www.w3.org/1999/xlink" width="8" height="14" viewBox="0 0 8 14"><defs><path id="9dk3a" d="M937.699 1927.002l-1.92-.002c-2.155 0-3.548 1.352-3.548 3.445v1.589h-1.93a.294.294 0 0 0-.301.285v2.302c0 .158.135.286.302.286h1.929v5.808c0 .157.135.285.302.285h2.517a.294.294 0 0 0 .301-.285v-5.808h2.256a.294.294 0 0 0 .302-.286v-2.302a.278.278 0 0 0-.088-.201.31.31 0 0 0-.213-.084h-2.256v-1.347c0-.647.163-.976 1.054-.976h1.292a.294.294 0 0 0 .302-.286v-2.137a.294.294 0 0 0-.301-.286z"/></defs><g><g transform="translate(-930 -1927)"><use fill="#fff" xlink:href="#9dk3a"/></g></g></svg>