<svg xmlns="http://www.w3.org/2000/svg" xmlns:xlink="http://www.w3.org/1999/xlink" width="16" height="15" viewBox="0 0 16 15"><defs><path id="vn4ca" d="M991 1935.196V1941h-3.43v-5.415c0-1.36-.495-2.289-1.737-2.289-.947 0-1.511.626-1.76 1.231-.09.217-.113.518-.113.82V1941h-3.43s.046-9.171 0-10.121h3.43v1.434l-.023.033h.023v-.033c.455-.688 1.27-1.672 3.091-1.672 2.257 0 3.949 1.446 3.949 4.555zm-12.141-7.448c0 .972-.744 1.75-1.94 1.75h-.023c-1.15 0-1.896-.778-1.896-1.75 0-.993.768-1.748 1.941-1.748 1.174 0 1.895.755 1.918 1.748zm-3.655 3.13h3.429V1941h-3.43z"/></defs><g><g transform="translate(-975 -1926)"><use fill="#fff" xlink:href="#vn4ca"/></g></g></svg>