<svg xmlns="http://www.w3.org/2000/svg" xmlns:xlink="http://www.w3.org/1999/xlink" width="17" height="13" viewBox="0 0 17 13"><defs><path id="rirga" d="M966 1929.539a7.627 7.627 0 0 1-2.008.518 3.306 3.306 0 0 0 1.533-1.813 7.231 7.231 0 0 1-2.21.794 3.597 3.597 0 0 0-2.546-1.038c-1.93 0-3.483 1.474-3.483 3.28 0 .26.024.51.081.749-2.897-.133-5.461-1.44-7.183-3.431a3.156 3.156 0 0 0-.477 1.658c0 1.136.621 2.143 1.548 2.726a3.61 3.61 0 0 1-1.575-.404v.036c0 1.594 1.208 2.918 2.792 3.223a3.694 3.694 0 0 1-.914.108c-.223 0-.448-.012-.66-.056.452 1.299 1.734 2.254 3.257 2.285a7.286 7.286 0 0 1-4.321 1.399c-.286 0-.56-.012-.834-.045a10.262 10.262 0 0 0 5.346 1.472c6.414 0 9.92-5 9.92-9.334a7.87 7.87 0 0 0-.013-.424 6.745 6.745 0 0 0 1.747-1.703z"/></defs><g><g transform="translate(-949 -1928)"><use fill="#26b2ec" xlink:href="#rirga"/></g></g></svg>